<svg xmlns="http://www.w3.org/2000/svg" width="1200" height="630" viewBox="0 0 1200 630">
<defs>
<style>@import url('https://fonts.googleapis.com/css2?family=Bricolage+Grotesque:opsz,wght@12..96,600;12..96,800&amp;family=Spline+Sans:wght@400;500&amp;family=Space+Mono:wght@400;700&amp;display=swap');</style>
<radialGradient id="glowO" cx="50%" cy="30%" r="58%"><stop offset="0" stop-color="#ff5b35" stop-opacity="0.06"/><stop offset="65%" stop-color="#ff5b35" stop-opacity="0"/></radialGradient>
<radialGradient id="glowT" cx="50%" cy="92%" r="55%"><stop offset="0" stop-color="#46c8c4" stop-opacity="0.045"/><stop offset="70%" stop-color="#46c8c4" stop-opacity="0"/></radialGradient>
</defs>
<rect width="1200" height="630" fill="#0b0d10"/>
<rect width="1200" height="630" fill="url(#glowO)"/>
<rect width="1200" height="630" fill="url(#glowT)"/>
<text x="600" y="135" text-anchor="middle" font-family="Space Mono" font-weight="700" font-size="17" letter-spacing="3.5" fill="#46c8c4">AI VISIBILITY STUDY · MLB</text>
<text x="600" y="246" text-anchor="middle" font-family="Bricolage Grotesque" font-weight="800" font-size="74" fill="#ece6da">The MLB AI Visibility Index</text>
<text x="600" y="312" text-anchor="middle" font-family="Spline Sans" font-weight="400" font-size="27" fill="#c7ccd4">An in-depth, AI-backed study of how MLB teams</text>
<text x="600" y="348" text-anchor="middle" font-family="Spline Sans" font-weight="400" font-size="27" fill="#c7ccd4">show up when AI answers the questions that matter.</text>
<rect x="213.5" y="394" width="153.6" height="36" rx="9" fill="#13161b" stroke="#323a45" stroke-width="1"/><text x="231.5" y="417.6" text-anchor="start" font-family="Space Mono" font-size="16" fill="#ff5b35">5 </text><text x="251.1" y="417.6" text-anchor="start" font-family="Space Mono" font-size="16" fill="#c7ccd4">AI ENGINES</text><rect x="383.0" y="394" width="163.4" height="36" rx="9" fill="#13161b" stroke="#323a45" stroke-width="1"/><text x="401.0" y="417.6" text-anchor="start" font-family="Space Mono" font-size="16" fill="#ff5b35">100 </text><text x="440.2" y="417.6" text-anchor="start" font-family="Space Mono" font-size="16" fill="#c7ccd4">QUESTIONS</text><rect x="562.4" y="394" width="114.4" height="36" rx="9" fill="#13161b" stroke="#323a45" stroke-width="1"/><text x="580.4" y="417.6" text-anchor="start" font-family="Space Mono" font-size="16" fill="#ff5b35">8 </text><text x="600.0" y="417.6" text-anchor="start" font-family="Space Mono" font-size="16" fill="#c7ccd4">TOPICS</text><rect x="692.8" y="394" width="163.4" height="36" rx="9" fill="#13161b" stroke="#323a45" stroke-width="1"/><text x="710.8" y="417.6" text-anchor="start" font-family="Space Mono" font-size="16" fill="#ff5b35">1,300 </text><text x="769.6" y="417.6" text-anchor="start" font-family="Space Mono" font-size="16" fill="#c7ccd4">ANSWERS</text><rect x="872.1" y="394" width="114.4" height="36" rx="9" fill="#13161b" stroke="#323a45" stroke-width="1"/><text x="890.1" y="417.6" text-anchor="start" font-family="Space Mono" font-size="16" fill="#ff5b35">30 </text><text x="919.5" y="417.6" text-anchor="start" font-family="Space Mono" font-size="16" fill="#c7ccd4">TEAMS</text>
<g transform="translate(470,494)"><path d="M0,-17 C2.2,-6 6,-2.2 17,0 C6,2.2 2.2,6 0,17 C-2.2,6 -6,2.2 -17,0 C-6,-2.2 -2.2,-6 0,-17 Z" fill="#46c8c4"/><g transform="translate(15,-13) scale(0.32)"><path d="M0,-17 C2.2,-6 6,-2.2 17,0 C6,2.2 2.2,6 0,17 C-2.2,6 -6,2.2 -17,0 C-6,-2.2 -2.2,-6 0,-17 Z" fill="#46c8c4" opacity="0.85"/></g></g><g transform="translate(600,494)"><rect x="-12" y="-2" width="7" height="15" rx="3" fill="#f3c34e"/><rect x="-2" y="-13" width="7" height="26" rx="3" fill="#f3c34e"/><rect x="8" y="-6" width="7" height="19" rx="3" fill="#f3c34e"/></g><g transform="translate(730,494)"><circle r="17" fill="#0b0d10" stroke="#ece6da" stroke-width="2.4"/><path d="M -8,-14.5 A 19 19 0 0 0 -8,14.5" fill="none" stroke="#ff5b35" stroke-width="2"/><path d="M 8,-14.5 A 19 19 0 0 1 8,14.5" fill="none" stroke="#ff5b35" stroke-width="2"/></g>
<text x="600" y="566" text-anchor="middle" font-family="Space Mono" font-size="17" letter-spacing="0.5" fill="#8b919c">thevisibilityreport.org</text>
</svg>